# xmcd
#
# Track frame offsets: 
#        150
#        23765
#        38341
#        50320
#        63234
#        76007
#        92608
#        108617
#        119937
#        137759
#        150402
#        164375
#        174768
#        186916
#        198648
#        211611
#        223576
#
# Disc length: 3144 seconds
#
# Revision: 1
# Processed by: cddbd v1.5.2PL0 Copyright (c) Steve Scherf et al.
# Submitted via: ExactAudioCopy v1.1
#
DISCID=db0c4611
DTITLE=B.B.King - B.B.King - Milestones of a Blues Legend cd 07 - My K
DTITLE=ind of Blues (1960)
DYEAR=1960
DGENRE=Blues
TTITLE0=You Dne lost Your Good Thing Now
TTITLE1=Mr. Pawn Broker
TTITLE2=Understand
TTITLE3=Someday Baby
TTITLE4=Driving Wheel
TTITLE5=Walking Doctor Bill
TTITLE6=My Own fault Baby
TTITLE7=Carfish Blues
TTITLE8=Hold That Train
TTITLE9=Please Set the Date
TTITLE10=Boogie Rock (bonus track)
TTITLE11=I Am (bonus track)
TTITLE12=Worry, Worry, Worry (bonus track)
TTITLE13=Hard Working Woman (bonus track)
TTITLE14=Walkin' and Cryin (bonus track)
TTITLE15=Dark Is the Night Part I (bonus track)
TTITLE16=Dark Is the Night Part II (bonus track)
EXTD=
EXTT0=
EXTT1=
EXTT2=
EXTT3=
EXTT4=
EXTT5=
EXTT6=
EXTT7=
EXTT8=
EXTT9=
EXTT10=
EXTT11=
EXTT12=
EXTT13=
EXTT14=
EXTT15=
EXTT16=
PLAYORDER=
